<svg width="100%" viewBox="0 0 680 520" xmlns="http://www.w3.org/2000/svg">
<defs>
  <marker id="arr-on" viewBox="0 0 10 10" refX="8" refY="5" markerWidth="5" markerHeight="5" orient="auto-start-reverse">
    <path d="M2 1L8 5L2 9" fill="none" stroke="#185FA5" stroke-width="1.5" stroke-linecap="round"/>
  </marker>
  <marker id="arr-off" viewBox="0 0 10 10" refX="8" refY="5" markerWidth="5" markerHeight="5" orient="auto-start-reverse">
    <path d="M2 1L8 5L2 9" fill="none" stroke="#D3D1C7" stroke-width="1.5" stroke-linecap="round"/>
  </marker>
</defs>

<rect x="190" y="14" width="300" height="40" rx="8" fill="#E6F1FB" stroke="#185FA5" stroke-width="1.5"/>
<text x="340" y="30" text-anchor="middle" font-size="11" fill="#185FA5" font-family="sans-serif" font-weight="500">User query</text>
<text x="340" y="46" text-anchor="middle" font-size="13" fill="#042C53" font-family="sans-serif" font-weight="500">"M8 screw Torx 10.9"</text>

<text x="20" y="92" font-size="10" fill="#185FA5" font-family="sans-serif" font-weight="500">TRACK 1 — part type</text>

<line x1="340" y1="54" x2="150" y2="82" stroke="#185FA5" stroke-width="1.5" marker-end="url(#arr-on)"/>
<line x1="340" y1="54" x2="340" y2="82" stroke="#D3D1C7" stroke-width="0.8" stroke-dasharray="4 3" marker-end="url(#arr-off)"/>
<line x1="340" y1="54" x2="530" y2="82" stroke="#D3D1C7" stroke-width="0.8" stroke-dasharray="4 3" marker-end="url(#arr-off)"/>

<rect x="70" y="82" width="160" height="40" rx="6" fill="#85B7EB" stroke="#042C53" stroke-width="2"/>
<text x="150" y="100" text-anchor="middle" font-size="13" font-weight="500" fill="#042C53" font-family="sans-serif">Fastener</text>
<text x="150" y="114" text-anchor="middle" font-size="10" fill="#185FA5" font-family="sans-serif">Supplier-Fastener — selected</text>

<rect x="260" y="82" width="160" height="40" rx="6" fill="#F1EFE8" stroke="#D3D1C7" stroke-width="0.5"/>
<text x="340" y="100" text-anchor="middle" font-size="12" fill="#B4B2A9" font-family="sans-serif">Bracket</text>
<text x="340" y="114" text-anchor="middle" font-size="10" fill="#D3D1C7" font-family="sans-serif">filtered out</text>

<rect x="450" y="82" width="160" height="40" rx="6" fill="#F1EFE8" stroke="#D3D1C7" stroke-width="0.5"/>
<text x="530" y="100" text-anchor="middle" font-size="12" fill="#B4B2A9" font-family="sans-serif">OEM Norm</text>
<text x="530" y="114" text-anchor="middle" font-size="10" fill="#D3D1C7" font-family="sans-serif">filtered out</text>

<text x="20" y="180" font-size="10" fill="#185FA5" font-family="sans-serif" font-weight="500">TRACK 2 — property (Thread + Drive already known from query)</text>

<line x1="150" y1="122" x2="71" y2="170" stroke="#D3D1C7" stroke-width="0.8" stroke-dasharray="3 2" marker-end="url(#arr-off)"/>
<line x1="150" y1="122" x2="199" y2="170" stroke="#185FA5" stroke-width="1.5" marker-end="url(#arr-on)"/>
<line x1="150" y1="122" x2="327" y2="170" stroke="#D3D1C7" stroke-width="0.8" stroke-dasharray="3 2" marker-end="url(#arr-off)"/>
<line x1="150" y1="122" x2="455" y2="170" stroke="#185FA5" stroke-width="1.5" marker-end="url(#arr-on)"/>
<line x1="150" y1="122" x2="563" y2="170" stroke="#185FA5" stroke-width="1.5" marker-end="url(#arr-on)"/>

<rect x="30" y="170" width="82" height="40" rx="6" fill="#F1EFE8" stroke="#D3D1C7" stroke-width="0.5"/>
<text x="71" y="188" text-anchor="middle" font-size="11" fill="#B4B2A9" font-family="sans-serif">Thread</text>
<text x="71" y="202" text-anchor="middle" font-size="10" fill="#D3D1C7" font-family="sans-serif">M8 known</text>

<rect x="158" y="170" width="82" height="40" rx="6" fill="#85B7EB" stroke="#042C53" stroke-width="2"/>
<text x="199" y="188" text-anchor="middle" font-size="11" font-weight="500" fill="#042C53" font-family="sans-serif">Strength</text>
<text x="199" y="202" text-anchor="middle" font-size="10" fill="#185FA5" font-family="sans-serif">selected</text>

<rect x="286" y="170" width="82" height="40" rx="6" fill="#F1EFE8" stroke="#D3D1C7" stroke-width="0.5"/>
<text x="327" y="188" text-anchor="middle" font-size="11" fill="#B4B2A9" font-family="sans-serif">Drive type</text>
<text x="327" y="202" text-anchor="middle" font-size="10" fill="#D3D1C7" font-family="sans-serif">Torx known</text>

<rect x="414" y="170" width="82" height="40" rx="6" fill="#E6F1FB" stroke="#185FA5" stroke-width="0.5"/>
<text x="455" y="190" text-anchor="middle" font-size="11" font-weight="500" fill="#042C53" font-family="sans-serif">Coating</text>

<rect x="522" y="170" width="82" height="40" rx="6" fill="#E6F1FB" stroke="#185FA5" stroke-width="0.5"/>
<text x="563" y="190" text-anchor="middle" font-size="11" font-weight="500" fill="#042C53" font-family="sans-serif">Self-lock</text>

<text x="20" y="268" font-size="10" fill="#185FA5" font-family="sans-serif" font-weight="500">TRACK 3 — value</text>

<line x1="199" y1="210" x2="110" y2="258" stroke="#185FA5" stroke-width="1.5" marker-end="url(#arr-on)"/>
<line x1="199" y1="210" x2="199" y2="258" stroke="#185FA5" stroke-width="1.5" marker-end="url(#arr-on)"/>
<line x1="199" y1="210" x2="290" y2="258" stroke="#185FA5" stroke-width="1.5" marker-end="url(#arr-on)"/>

<rect x="60" y="258" width="100" height="40" rx="6" fill="#E6F1FB" stroke="#185FA5" stroke-width="0.5"/>
<text x="110" y="282" text-anchor="middle" font-size="13" font-weight="500" fill="#042C53" font-family="sans-serif">8.8</text>

<rect x="149" y="258" width="100" height="40" rx="6" fill="#85B7EB" stroke="#042C53" stroke-width="2"/>
<text x="199" y="276" text-anchor="middle" font-size="13" font-weight="500" fill="#042C53" font-family="sans-serif">10.9</text>
<text x="199" y="290" text-anchor="middle" font-size="10" fill="#185FA5" font-family="sans-serif">selected</text>

<rect x="240" y="258" width="100" height="40" rx="6" fill="#E6F1FB" stroke="#185FA5" stroke-width="0.5"/>
<text x="290" y="282" text-anchor="middle" font-size="13" font-weight="500" fill="#042C53" font-family="sans-serif">12.9</text>

<rect x="50" y="326" width="580" height="68" rx="8" fill="#85B7EB" stroke="#042C53" stroke-width="1.5"/>
<text x="340" y="346" text-anchor="middle" font-size="10" fill="#042C53" font-family="sans-serif" font-weight="500">SELECTED PATH — filter applied</text>
<text x="340" y="364" text-anchor="middle" font-size="12" fill="#042C53" font-family="sans-serif" font-weight="500">module=partseek · category=Supplier-Fastener · strength=10.9</text>
<text x="340" y="382" text-anchor="middle" font-size="11" fill="#185FA5" font-family="sans-serif">Final query: "M8 screw Torx 10.9 fastener strength"</text>

<rect x="50" y="414" width="580" height="56" rx="8" fill="#F1EFE8" stroke="#D3D1C7" stroke-width="0.5"/>
<rect x="70" y="430" width="14" height="14" rx="3" fill="#85B7EB" stroke="#042C53" stroke-width="1.5"/>
<text x="92" y="442" font-size="11" fill="#5F5E5A" font-family="sans-serif">Selected — active path</text>
<rect x="230" y="430" width="14" height="14" rx="3" fill="#E6F1FB" stroke="#185FA5" stroke-width="0.5"/>
<text x="252" y="442" font-size="11" fill="#5F5E5A" font-family="sans-serif">Available — can be chosen</text>
<rect x="420" y="430" width="14" height="14" rx="3" fill="#F1EFE8" stroke="#D3D1C7" stroke-width="0.5"/>
<text x="442" y="442" font-size="11" fill="#B4B2A9" font-family="sans-serif">Filtered out — already known from query</text>
<text x="340" y="462" text-anchor="middle" font-size="10" fill="#B4B2A9" font-family="sans-serif">Example: "M8 screw Torx 10.9" → Fastener → Strength → 10.9</text>
</svg>
